<?xml version="1.0" standalone="no"?>
<!DOCTYPE svg PUBLIC "-//W3C//DTD SVG 20010904//EN"
 "http://www.w3.org/TR/2001/REC-SVG-20010904/DTD/svg10.dtd">
<svg version="1.0" xmlns="http://www.w3.org/2000/svg"
 width="512.000000pt" height="512.000000pt" viewBox="0 0 512.000000 512.000000"
 preserveAspectRatio="xMidYMid meet">

<g transform="translate(0.000000,512.000000) scale(0.100000,-0.100000)"
fill="#fff" stroke="none">
<path d="M3030 5110 c-231 -28 -430 -88 -636 -190 -177 -87 -324 -191 -465
-327 -183 -177 -288 -321 -394 -538 -90 -185 -135 -328 -171 -540 -26 -148
-23 -443 4 -595 46 -253 145 -509 272 -708 14 -21 10 -27 -110 -147 l-125
-125 -50 16 c-33 10 -74 14 -122 11 -132 -7 -145 -18 -531 -401 -327 -326
-342 -343 -342 -378 0 -46 31 -78 74 -78 26 0 75 45 370 340 228 227 353 344
378 355 48 19 108 19 156 -1 49 -20 436 -404 462 -460 25 -51 25 -117 1 -169
-13 -27 -177 -198 -502 -521 -387 -385 -492 -484 -523 -494 -46 -15 -109 -9
-157 14 -20 9 -128 110 -241 224 -166 169 -206 215 -216 248 -27 92 -9 149 74
236 49 51 55 62 52 94 -4 48 -43 80 -85 70 -39 -10 -136 -114 -169 -183 -24
-50 -28 -70 -29 -148 0 -146 14 -167 273 -428 176 -176 228 -224 277 -247 123
-61 262 -48 373 35 31 23 264 251 518 506 399 402 465 472 488 523 35 75 44
179 22 251 l-16 50 125 125 c120 120 126 124 147 110 200 -128 453 -226 708
-272 165 -30 456 -29 624 1 199 36 340 82 521 170 203 100 357 214 526 387
440 455 620 1095 483 1713 -49 220 -158 486 -209 509 -36 17 -48 15 -79 -9
-35 -28 -34 -64 5 -141 70 -139 127 -319 160 -508 20 -108 17 -420 -4 -540
-96 -558 -452 -1035 -954 -1280 -494 -241 -1064 -235 -1553 16 -173 89 -294
178 -435 319 -138 138 -230 262 -314 425 -112 219 -171 423 -193 671 -25 298
38 624 176 901 310 618 948 996 1631 965 260 -12 466 -66 700 -182 220 -109
368 -225 565 -442 81 -89 99 -97 144 -62 60 47 23 116 -166 301 -270 264 -619
444 -988 509 -132 23 -411 33 -530 19z m-1161 -3184 c36 -37 96 -94 132 -126
l67 -58 -109 -108 -109 -109 -162 163 -163 162 109 109 109 109 30 -37 c17
-20 60 -67 96 -105z"/>
<path d="M3070 4579 c-304 -35 -596 -183 -815 -410 -248 -259 -378 -580 -378
-939 0 -160 20 -283 68 -427 240 -718 1012 -1098 1736 -852 35 12 112 46 170
76 371 191 633 542 716 960 26 132 23 376 -6 513 -148 696 -789 1160 -1491
1079z m300 -149 c263 -33 500 -144 689 -325 308 -293 440 -718 351 -1125 -97
-446 -433 -799 -870 -914 -587 -155 -1193 147 -1426 711 -98 236 -115 510 -48
763 152 577 717 962 1304 890z"/>
<path d="M2690 4024 c-156 -42 -259 -176 -260 -341 0 -125 22 -166 173 -320
l130 -133 -130 -132 c-158 -162 -178 -200 -171 -338 5 -99 33 -165 98 -230 65
-65 131 -93 230 -98 139 -7 176 12 337 171 l133 131 132 -131 c162 -159 200
-178 338 -171 103 6 164 31 230 98 109 108 135 264 68 406 -14 32 -66 94 -145
175 l-122 125 124 124 c151 150 179 200 178 320 0 268 -274 438 -510 316 -29
-15 -96 -73 -167 -145 l-120 -120 -125 122 c-132 129 -179 160 -270 177 -68
13 -83 12 -151 -6z m175 -156 c11 -6 90 -80 176 -164 138 -136 160 -154 189
-154 29 0 52 19 194 159 148 146 165 159 212 170 58 14 106 5 162 -29 66 -41
101 -131 81 -214 -11 -47 -24 -64 -170 -212 -140 -141 -159 -165 -159 -193 0
-29 19 -53 159 -195 101 -102 163 -173 168 -192 37 -138 -55 -264 -194 -264
-30 0 -68 7 -86 16 -18 9 -100 83 -183 165 -133 132 -154 149 -184 149 -29 0
-51 -17 -189 -154 -86 -85 -169 -160 -185 -165 -39 -15 -121 -14 -159 3 -39
17 -92 71 -106 109 -14 36 -14 118 0 153 5 16 80 99 165 185 137 138 154 160
154 189 0 30 -17 51 -149 184 -82 83 -156 165 -165 183 -23 45 -20 127 5 180
45 92 174 137 264 91z"/>
</g>
</svg>
